/* XPM */
static char *Self_CILPForm_XPM[]={
/* Self_CILPForm */
"32 32 332 2",
"      c None",
" 0    c #F7F7F7",
" 1    c #DDDDDE",
" 2    c #E2E3E3",
" 3    c #F2F2F2",
" 4    c #FAFAFA",
" 5    c #FCFCFC",
" 6    c #C6C6C7",
" 7    c #757879",
" 8    c #585A5C",
" 9    c #5B5C5D",
" a    c #6D6D6E",
" b    c #7D7F80",
" c    c #9B9C9C",
" d    c #C5C5C6",
" e    c #F1F1F1",
" f    c #FEFEFE",
" g    c #F8F9F9",
" h    c #B8BABA",
" i    c #727475",
" j    c #5C5E5F",
" k    c #585C5D",
" l    c #56585A",
" m    c #545556",
" n    c #515152",
" o    c #4D4F50",
" p    c #4A4B4C",
" q    c #48494A",
" r    c #505151",
" s    c #666769",
" t    c #8E8E8F",
" u    c #B0B0B0",
" v    c #E2E2E2",
" w    c #F8F8F8",
" x    c #F3F3F3",
" y    c #A4A6A7",
" z    c #717274",
" A    c #616465",
" B    c #5D6162",
" C    c #5A5D5E",
" D    c #575A5C",
" E    c #555759",
" F    c #444546",
" G    c #424343",
" H    c #3E3F40",
" I    c #3C3C3D",
" J    c #38393A",
" K    c #39393A",
" L    c #404040",
" M    c #4F4F4F",
" N    c #676767",
" O    c #B8B8B8",
" P    c #EEEEEF",
" Q    c #DEDEDF",
" R    c #999B9C",
" S    c #6E7173",
" T    c #676B6C",
" U    c #656768",
" V    c #626466",
" W    c #6E6F70",
" X    c #6D6F70",
" Y    c #6B6B6C",
" Z    c #535456",
" &    c #505152",
"0     c #444646",
"00    c #363637",
"01    c #333333",
"02    c #2C2C2C",
"03    c #303030",
"04    c #464847",
"05    c #565A5A",
"06    c #E1E1E2",
"07    c #FDFDFD",
"08    c #D2D2D3",
"09    c #818386",
"0a    c #6A6C6F",
"0b    c #686B6D",
"0c    c #6A6C6E",
"0d    c #676C6D",
"0e    c #6D6E70",
"0f    c #747576",
"0g    c #767879",
"0h    c #777778",
"0i    c #717272",
"0j    c #676869",
"0k    c #4A4B4D",
"0l    c #535455",
"0m    c #535454",
"0n    c #515353",
"0o    c #4E4E4F",
"0p    c #3B3C3D",
"0q    c #393A3A",
"0r    c #343334",
"0s    c #313231",
"0t    c #515153",
"0u    c #3D3D3F",
"0v    c #212222",
"0w    c #BBBBBB",
"0x    c #DBDBDB",
"0y    c #F9F9F9",
"0z    c #C9CACA",
"0A    c #95989C",
"0B    c #87898E",
"0C    c #6F7273",
"0D    c #6C7071",
"0E    c #646669",
"0F    c #606364",
"0G    c #606264",
"0H    c #6F7171",
"0I    c #6F7172",
"0J    c #6D6E6F",
"0K    c #6A6B6C",
"0L    c #565657",
"0M    c #5B5B5C",
"0N    c #5E5E5F",
"0O    c #5C5D5E",
"0P    c #5D5D5E",
"0Q    c #565757",
"0R    c #353535",
"0S    c #3C3C3E",
"0T    c #4F4E51",
"0U    c #49494A",
"0V    c #2B2B2A",
"0W    c #2F2D2A",
"0X    c #222222",
"0Y    c #C5C5C5",
"0Z    c #C2C2C2",
"0&    c #E5E5E5",
"1     c #ACAEAF",
"10    c #C6C8CD",
"11    c #A5A7AB",
"12    c #BFC2C8",
"13    c #A4A7AE",
"14    c #929497",
"15    c #8A8D92",
"16    c #696A6D",
"17    c #5E6063",
"18    c #57595A",
"19    c #515454",
"1a    c #545859",
"1b    c #545558",
"1c    c #525253",
"1d    c #595A5A",
"1e    c #3B3D3E",
"1f    c #4F5152",
"1g    c #363638",
"1h    c #1F1F1F",
"1i    c #1D1C1C",
"1j    c #5E5046",
"1k    c #656567",
"1l    c #B4B4B4",
"1m    c #EBEBEB",
"1n    c #AAACAC",
"1o    c #8E9299",
"1p    c #66696A",
"1q    c #C2C3CA",
"1r    c #78787C",
"1s    c #CFD1D4",
"1t    c #AEB0B5",
"1u    c #BDBFC2",
"1v    c #B5B8BF",
"1w    c #8B8D90",
"1x    c #85878C",
"1y    c #5E5F62",
"1z    c #4F5153",
"1A    c #4B4C4D",
"1B    c #454647",
"1C    c #494C4C",
"1D    c #494B4C",
"1E    c #424345",
"1F    c #3D3E3F",
"1G    c #474849",
"1H    c #525455",
"1I    c #424242",
"1J    c #262626",
"1K    c #2B2B2B",
"1L    c #4C4C4D",
"1M    c #756964",
"1N    c #717273",
"1O    c #ADADAD",
"1P    c #E9E9E9",
"1Q    c #CDCED0",
"1R    c #7D8089",
"1S    c #626668",
"1T    c #82858F",
"1U    c #56595B",
"1V    c #9EA0AA",
"1W    c #636569",
"1X    c #B7B8BE",
"1Y    c #87898C",
"1Z    c #C8C8CC",
"1&    c #C0C1C8",
"2     c #B1B3B4",
"20    c #C1C5C8",
"21    c #808186",
"22    c #787A7D",
"23    c #545658",
"24    c #3C3F3F",
"25    c #3D3F3E",
"26    c #474748",
"27    c #565759",
"28    c #202021",
"29    c #242424",
"2a    c #333332",
"2b    c #868687",
"2c    c #A8A8A8",
"2d    c #756B65",
"2e    c #8C8C8D",
"2f    c #EBECEE",
"2g    c #939296",
"2h    c #E3E4E4",
"2i    c #6A6C73",
"2j    c #959696",
"2k    c #70737C",
"2l    c #484B4D",
"2m    c #82848E",
"2n    c #55565C",
"2o    c #9496A1",
"2p    c #65686C",
"2q    c #A5A7AC",
"2r    c #A2A4A8",
"2s    c #B7B7B9",
"2t    c #D5D5D9",
"2u    c #9D9D9F",
"2v    c #C2C4CA",
"2w    c #808387",
"2x    c #5A5A59",
"2y    c #3A3A3A",
"2z    c #212020",
"2A    c #232222",
"2B    c #212322",
"2C    c #575757",
"2D    c #B7B7B7",
"2E    c #B2B2B2",
"2F    c #D6D6D6",
"2G    c #FBFBFB",
"2H    c #A1A0A3",
"2I    c #DFE0E0",
"2J    c #6C6A6B",
"2K    c #DCDCDC",
"2L    c #707278",
"2M    c #B5B5B5",
"2N    c #696A70",
"2O    c #7F7F80",
"2P    c #6E7078",
"2Q    c #46494C",
"2R    c #797B84",
"2S    c #5C5E63",
"2T    c #888991",
"2U    c #75767C",
"2V    c #868889",
"2W    c #CCCDD2",
"2X    c #565558",
"2Y    c #2F2F2F",
"2Z    c #1D1C1B",
"2&    c #262625",
"3     c #292929",
"30    c #808080",
"31    c #ABABAB",
"32    c #9B9B9B",
"33    c #C0C0C0",
"34    c #9C9CA1",
"35    c #CACACB",
"36    c #6B696A",
"37    c #E4E4E4",
"38    c #6B6869",
"39    c #DBDBDC",
"3a    c #74777B",
"3b    c #6B6D72",
"3c    c #ADADAE",
"3d    c #63636A",
"3e    c #464749",
"3f    c #64676E",
"3g    c #4B4B4F",
"3h    c #66696F",
"3i    c #73757F",
"3j    c #2B2D2D",
"3k    c #27292A",
"3l    c #222122",
"3m    c #434343",
"3n    c #959595",
"3o    c #8F8F8F",
"3p    c #9E9E9E",
"3q    c #E6E6E6",
"3r    c #827F80",
"3s    c #797373",
"3t    c #D9D9D9",
"3u    c #6A6564",
"3v    c #DFDFDF",
"3w    c #707174",
"3x    c #CBCBCB",
"3y    c #797A7E",
"3z    c #BABABB",
"3A    c #62646A",
"3B    c #909090",
"3C    c #5D5F62",
"3D    c #5A5B61",
"3E    c #30302F",
"3F    c #313131",
"3G    c #717171",
"3H    c #888888",
"3I    c #DFDFE0",
"3J    c #A29F9F",
"3K    c #E0E0E1",
"3L    c #7D7877",
"3M    c #D1D1D2",
"3N    c #77777B",
"3O    c #6E6C6D",
"3P    c #CECECF",
"3Q    c #6E6E74",
"3R    c #B9BABB",
"3S    c #787474",
"3T    c #DDDDDD",
"3U    c #989898",
"3V    c #797979",
"3W    c #898989",
"3X    c #CFCFCF",
"3Y    c #85807F",
"3Z    c #D4D4D5",
"3&    c #736D6B",
"4     c #615B59",
"40    c #C5C5C7",
"41    c #6A635F",
"42    c #EFEFEF",
"43    c #EDEDED",
"44    c #BDBBB9",
"45    c #E8E8E8",
"46    c #77706B",
"47    c #C3C3C4",
"48    c #78716C",
"49    c #BCB9B8",
"4a    c #F5F5F5",
"                                                                ",
"                                                                ",
"                                                                ",
"                                                                ",
"                                                                ",
"                                                                ",
"                                                                ",
"                                                                ",
"                       0 1 2 3 4 5                              ",
"                     6 7 8 9 a b c d e f                        ",
"               g h i j k l m n o p q q r s t u v w              ",
"           x y z A B C D E m n o p q F G H I J K L M N O P      ",
"       Q R S T U V W X W Y Z & o p q0  G H I J00010203040506    ",
"0708090a0b0c0d U0e0f0g0h0i0j n o0k0l0m0n0o0p0q0r0s L0t0u0v0w0x0y",
"0z0A0B0C0D0E0F V0G0H0I0J0K m n o0L0M0N0O0P0Q0R0S0T0U0V0W0X0Y0Z0&",
"1 101112131415161718191a1b m1c o p0M 91d0Q1e p1f1g1h1i1j1k1l0Y1m",
"1n1o1p1q1r1s1t1u1v1w1x1y1z1A1B1C1D q1E1F1G1H1I1J1h1K1L1M1N1O1P07",
"1Q1R1S1T1U1V1W1X1Y1Z1&2 20212223242526270o0328292a2b2c2d2e      ",
"2f2g2h2i2j2k2l2m2n2o2p2q2r2s2t2u2v2w2x2y2z2A2B2C2D u2E2F2G      ",
"  2H2I2J2K2L2M2N2O2P2Q2R2S2T2U2V2W2X2Y2Z2&3 30313233 x          ",
"  3435363738393a 63b3c3d3e3f3g3h3i3j3k3l3m3n3o3p2K              ",
"    3q3r2F3s3t3u3v3w3x3y3z3A3B3C3D3E3F3G3H302E x                ",
"      3I0y3J3K3L3M3N2F3O3P3Q3R3S3T333U3V3W3X                    ",
"              0x x3Y3Z3& d4 40412F423p2D43                      ",
"                  07  44454647482F333t                          ",
"                           00y493T4a                            ",
"                                                                ",
"                                                                ",
"                                                                ",
"                                                                ",
"                                                                ",
"                                                                "};

